#define battery_4_width 18
#define battery_4_height 8
static unsigned char battery_4_bits[] = {
   0xfe, 0xff, 0x01, 0x01, 0x00, 0x02, 0x6d, 0x1b, 0x02, 0x6d, 0x1b, 0x02,
   0x6d, 0x1b, 0x02, 0x6d, 0x1b, 0x02, 0x01, 0x00, 0x02, 0xfe, 0xff, 0x01 };
