#define battery_2_width 18
#define battery_2_height 8
static unsigned char battery_2_bits[] = {
   0xfe, 0xff, 0x01, 0x01, 0x00, 0x02, 0x6d, 0x00, 0x02, 0x6d, 0x00, 0x02,
   0x6d, 0x00, 0x02, 0x6d, 0x00, 0x02, 0x01, 0x00, 0x02, 0xfe, 0xff, 0x01 };
