#define battery_0_width 18
#define battery_0_height 8
static unsigned char battery_0_bits[] = {
   0xfe, 0xff, 0x01, 0x01, 0x00, 0x02, 0x01, 0x00, 0x02, 0x01, 0x00, 0x02,
   0x01, 0x00, 0x02, 0x01, 0x00, 0x02, 0x01, 0x00, 0x02, 0xfe, 0xff, 0x01 };
