#define battery_1_width 18
#define battery_1_height 8
static unsigned char battery_1_bits[] = {
   0xfe, 0xff, 0x01, 0x01, 0x00, 0x02, 0x0d, 0x00, 0x02, 0x0d, 0x00, 0x02,
   0x0d, 0x00, 0x02, 0x0d, 0x00, 0x02, 0x01, 0x00, 0x02, 0xfe, 0xff, 0x01 };
