#define input_source_width 10
#define input_source_height 8
static unsigned char input_source_bits[] = {
   0x08, 0x00, 0x38, 0x00, 0x7f, 0x00, 0xf8, 0x03, 0xf8, 0x03, 0x7f, 0x00,
   0x38, 0x00, 0x08, 0x00 };
