#define off_width 15
#define off_height 9
static unsigned char off_bits[] = {
   0xfe, 0x3f, 0x03, 0x60, 0x01, 0x5b, 0x19, 0x49, 0xa5, 0x5f, 0x25, 0x49,
   0x19, 0x49, 0x03, 0x60, 0xfe, 0x3f };
