#define oled1_width 128
#define oled1_height 64
static unsigned char oled1_bits[] = {
   0x00, 0x00, 0x00, 0x00, 0x00, 0x00, 0x00, 0x80, 0x00, 0x00, 0x00, 0x00,
   0x00, 0x00, 0x00, 0x00, 0x3e, 0x00, 0x00, 0x00, 0x00, 0x00, 0x00, 0x80,
   0x1c, 0x00, 0x00, 0x00, 0x00, 0x00, 0x00, 0x00, 0x08, 0x00, 0x00, 0x00,
   0x00, 0x08, 0x00, 0x80, 0x24, 0x20, 0x02, 0x00, 0x00, 0x00, 0x00, 0x00,
   0x08, 0x73, 0xf3, 0x18, 0x75, 0x5c, 0xa4, 0x8c, 0xa4, 0x73, 0x67, 0x1a,
   0x01, 0x00, 0x00, 0x00, 0x88, 0x94, 0x14, 0x25, 0x83, 0x48, 0x64, 0x92,
   0x1c, 0x24, 0x92, 0xa6, 0x00, 0x00, 0x00, 0x00, 0x88, 0x97, 0x14, 0x3d,
   0xe1, 0x48, 0x24, 0x9e, 0x24, 0x27, 0xf2, 0xa2, 0x00, 0x00, 0x00, 0x00,
   0x88, 0x90, 0x14, 0x05, 0x91, 0x48, 0x26, 0x82, 0xa4, 0x24, 0x12, 0xa2,
   0x00, 0x00, 0x00, 0x00, 0x08, 0x97, 0xf4, 0x38, 0xe1, 0x99, 0x25, 0x9c,
   0x1c, 0x6f, 0xe6, 0x42, 0x00, 0x00, 0x00, 0x00, 0x00, 0x00, 0x10, 0x00,
   0x00, 0x00, 0x00, 0x80, 0x00, 0x00, 0x00, 0x40, 0x00, 0x00, 0x00, 0x00,
   0x00, 0x00, 0x10, 0x00, 0x00, 0x00, 0x00, 0x80, 0x00, 0x00, 0x00, 0x20,
   0x00, 0x00, 0x00, 0x00, 0x00, 0x00, 0x00, 0x00, 0x00, 0x00, 0x00, 0x80,
   0xff, 0xff, 0xff, 0xff, 0xff, 0xff, 0xff, 0xff, 0x00, 0x00, 0x00, 0x00,
   0x00, 0x00, 0x00, 0x80, 0x00, 0x00, 0x00, 0x00, 0x00, 0x00, 0x00, 0x00,
   0x10, 0x00, 0x00, 0x00, 0x00, 0x00, 0xc2, 0x81, 0x00, 0x00, 0x00, 0x00,
   0x00, 0x00, 0x00, 0x00, 0x28, 0x40, 0x00, 0x00, 0x00, 0x00, 0x25, 0x82,
   0x00, 0x00, 0x00, 0x00, 0x00, 0x00, 0x00, 0x00, 0x28, 0xee, 0x04, 0x00,
   0x00, 0x00, 0x12, 0x80, 0x00, 0x00, 0x00, 0x00, 0x00, 0x00, 0x9e, 0x71,
   0x44, 0x41, 0x00, 0x00, 0x00, 0x00, 0x10, 0x80, 0x00, 0x00, 0x00, 0x00,
   0x00, 0x00, 0x42, 0x0a, 0x7c, 0x41, 0x00, 0x00, 0x00, 0x00, 0x10, 0x80,
   0x00, 0x00, 0x00, 0x00, 0x00, 0x00, 0xcc, 0x0b, 0x44, 0x41, 0x00, 0x00,
   0x00, 0x00, 0x20, 0x82, 0x3e, 0x01, 0x00, 0x00, 0x00, 0x00, 0x50, 0x08,
   0x82, 0xce, 0x04, 0x00, 0x00, 0x00, 0xc0, 0x81, 0x08, 0x00, 0x00, 0x00,
   0x00, 0x00, 0x9e, 0x73, 0x00, 0x00, 0x00, 0x00, 0x00, 0x00, 0x00, 0x80,
   0x08, 0xdd, 0x18, 0x00, 0x00, 0x00, 0x00, 0x00, 0x00, 0x00, 0x00, 0x00,
   0x00, 0x00, 0x00, 0x80, 0x08, 0x25, 0x25, 0x00, 0x00, 0x00, 0x00, 0x00,
   0x00, 0x00, 0x00, 0x00, 0x00, 0x00, 0x00, 0x80, 0x08, 0x25, 0x3d, 0x00,
   0x00, 0x00, 0x00, 0x00, 0x70, 0x00, 0x00, 0x00, 0x00, 0x00, 0xc2, 0x81,
   0x08, 0x25, 0x05, 0x00, 0x00, 0x00, 0x00, 0x00, 0x08, 0x40, 0x00, 0x00,
   0x00, 0x00, 0x25, 0x82, 0x08, 0x25, 0x39, 0x00, 0x00, 0x00, 0x00, 0x00,
   0x08, 0xe6, 0x04, 0x00, 0x00, 0x00, 0x12, 0x80, 0x00, 0x00, 0x00, 0x00,
   0x00, 0x00, 0x9e, 0x71, 0x30, 0x49, 0x00, 0x00, 0x00, 0x00, 0x10, 0x80,
   0x00, 0x00, 0x00, 0x00, 0x00, 0x00, 0x42, 0x0a, 0x40, 0x4f, 0x00, 0x00,
   0x00, 0x00, 0x10, 0x80, 0x00, 0x00, 0x00, 0x00, 0x00, 0x00, 0xcc, 0x0b,
   0x40, 0x41, 0x00, 0x00, 0x00, 0x00, 0x20, 0x82, 0x00, 0x00, 0x00, 0x00,
   0x00, 0x00, 0x50, 0x08, 0x38, 0xce, 0x04, 0x00, 0x00, 0x00, 0xc0, 0x81,
   0x00, 0x00, 0x00, 0x00, 0x00, 0x00, 0x9e, 0x73, 0x00, 0x00, 0x00, 0x00,
   0x00, 0x00, 0x00, 0x80, 0x00, 0x00, 0x00, 0x00, 0x00, 0x00, 0x00, 0x00,
   0x00, 0x00, 0x00, 0x00, 0x00, 0x00, 0x00, 0x80, 0x00, 0x00, 0x00, 0x00,
   0x00, 0x00, 0x00, 0x00, 0xff, 0xff, 0xff, 0xff, 0xff, 0xff, 0xff, 0xff,
   0xff, 0xff, 0xff, 0xff, 0xff, 0xff, 0xff, 0xff, 0x00, 0x00, 0x00, 0x00,
   0x00, 0x00, 0x00, 0x80, 0x00, 0x00, 0x00, 0x00, 0x00, 0x00, 0x00, 0x00,
   0x00, 0x00, 0x00, 0x00, 0x00, 0x00, 0x00, 0x80, 0x1c, 0x00, 0x00, 0x00,
   0x00, 0x00, 0x00, 0x00, 0x00, 0x00, 0x00, 0x00, 0x00, 0xc0, 0x00, 0x80,
   0x24, 0x00, 0x00, 0x00, 0x00, 0x00, 0x00, 0x00, 0x00, 0x00, 0x00, 0x00,
   0x00, 0xe0, 0x00, 0x80, 0x24, 0x27, 0xc9, 0x28, 0x00, 0x00, 0x00, 0x00,
   0x00, 0x00, 0x00, 0x00, 0x00, 0xf0, 0x00, 0x80, 0x9c, 0xa8, 0x2a, 0x19,
   0x00, 0x00, 0x00, 0x00, 0x00, 0x80, 0x00, 0x00, 0x00, 0xf8, 0x00, 0x80,
   0x84, 0xa8, 0xea, 0x09, 0x00, 0x00, 0x00, 0x00, 0x82, 0x80, 0x00, 0x00,
   0xc0, 0xff, 0x00, 0x80, 0x84, 0x48, 0x24, 0x08, 0x00, 0x00, 0x00, 0x00,
   0x44, 0x80, 0x00, 0x00, 0xc0, 0xff, 0x00, 0x80, 0x04, 0x47, 0xc4, 0x09,
   0x00, 0x00, 0x00, 0x00, 0x44, 0x8e, 0xa2, 0x1b, 0xc3, 0xff, 0x00, 0x80,
   0x00, 0x00, 0x00, 0x00, 0x00, 0x00, 0x00, 0x00, 0x28, 0x91, 0xa2, 0xa4,
   0xc4, 0xff, 0x00, 0x80, 0x00, 0x00, 0x00, 0x00, 0x00, 0x00, 0x00, 0x00,
   0x28, 0x91, 0xa2, 0xa4, 0xc7, 0xff, 0x00, 0x80, 0x00, 0x00, 0x00, 0x00,
   0x00, 0x00, 0x00, 0x00, 0x28, 0x91, 0xb2, 0xa4, 0xc0, 0xff, 0x00, 0x80,
   0x00, 0x00, 0x00, 0x00, 0x00, 0x00, 0x00, 0x00, 0x10, 0x8e, 0xac, 0x24,
   0xc7, 0xff, 0x00, 0x80, 0x00, 0x00, 0x00, 0x00, 0x00, 0x00, 0x00, 0x00,
   0x00, 0x00, 0x00, 0x00, 0xc0, 0xff, 0x00, 0x80, 0x00, 0x00, 0x00, 0x00,
   0x00, 0x00, 0x00, 0x00, 0x00, 0x00, 0x00, 0x00, 0x00, 0xf8, 0x00, 0x80,
   0x00, 0x00, 0x00, 0x00, 0x00, 0x00, 0x00, 0x00, 0x00, 0x00, 0x00, 0x00,
   0x00, 0xf0, 0x00, 0x80, 0x00, 0x00, 0x00, 0x00, 0x00, 0x00, 0x00, 0x00,
   0x00, 0x00, 0x00, 0x00, 0x00, 0xe0, 0x00, 0x80, 0x00, 0x00, 0x00, 0x00,
   0x00, 0x00, 0x00, 0x00, 0x00, 0x00, 0x00, 0x00, 0x00, 0xc0, 0x00, 0x80,
   0x00, 0x00, 0x00, 0x00, 0x00, 0x00, 0x00, 0x00, 0x00, 0x00, 0x00, 0x00,
   0x00, 0x00, 0x00, 0x80, 0x00, 0x00, 0x00, 0x00, 0x00, 0x00, 0x00, 0x00,
   0x00, 0x00, 0x00, 0x00, 0x00, 0x00, 0x00, 0x80, 0x00, 0x00, 0x00, 0x00,
   0x00, 0x00, 0x00, 0x00, 0xff, 0xff, 0xff, 0xff, 0xff, 0xff, 0xff, 0xff,
   0xff, 0xff, 0xff, 0xff, 0xff, 0xff, 0xff, 0xff, 0x00, 0x00, 0x00, 0x00,
   0x00, 0x00, 0x00, 0x80, 0x00, 0x00, 0x00, 0x00, 0x00, 0x00, 0x00, 0x00,
   0x00, 0x02, 0x00, 0x00, 0x00, 0x00, 0x00, 0x80, 0x00, 0x00, 0x04, 0x00,
   0x00, 0x00, 0x00, 0x00, 0x10, 0x02, 0x00, 0x00, 0x00, 0x00, 0x00, 0x80,
   0x1e, 0x00, 0x04, 0x00, 0x00, 0x00, 0x00, 0x00, 0x28, 0x02, 0x00, 0x10,
   0x00, 0x00, 0x00, 0x80, 0x02, 0x00, 0x24, 0x00, 0x00, 0x00, 0x00, 0x00,
   0x28, 0x1e, 0x27, 0x3a, 0x00, 0x00, 0x00, 0x80, 0xe2, 0x88, 0x74, 0x00,
   0x00, 0x00, 0x00, 0x00, 0x44, 0xa2, 0x28, 0x12, 0x00, 0x00, 0x00, 0x80,
   0x0e, 0x89, 0x24, 0x00, 0x00, 0x00, 0x00, 0x00, 0x7c, 0xa2, 0x28, 0x12,
   0x00, 0x00, 0x00, 0x80, 0xc2, 0x89, 0x24, 0x00, 0x00, 0x00, 0x00, 0x00,
   0x44, 0xa2, 0x28, 0x13, 0x00, 0x00, 0x00, 0x80, 0x22, 0xc9, 0x24, 0x00,
   0x00, 0x00, 0x00, 0x00, 0x82, 0x1e, 0xc7, 0x32, 0x00, 0x00, 0x00, 0x80,
   0xc2, 0xb3, 0x64, 0x00, 0x00, 0x00, 0x00, 0x00, 0x00, 0x00, 0x00, 0x00,
   0x00, 0x00, 0x00, 0x80, 0x00, 0x00, 0x00, 0x00, 0x00, 0x00, 0x00, 0x00,
   0x00, 0x00, 0x00, 0x00, 0x00, 0x00, 0x00, 0x80, 0x00, 0x00, 0x00, 0x00,
   0x00, 0x00, 0x00, 0x00 };
