#define on_width 15
#define on_height 9
static unsigned char on_bits[] = {
   0xfe, 0x3f, 0x03, 0x60, 0x01, 0x40, 0x31, 0x4e, 0x49, 0x4a, 0x49, 0x4a,
   0x31, 0x4a, 0x03, 0x60, 0xfe, 0x3f };
