#define volume_3_width 11
#define volume_3_height 18
static unsigned char volume_3_bits[] = {
   0x00, 0x00, 0x10, 0x00, 0x20, 0x00, 0x24, 0x00, 0x48, 0x00, 0x49, 0x00,
   0x92, 0x00, 0x92, 0x00, 0x92, 0x00, 0x92, 0x00, 0x92, 0x00, 0x92, 0x00,
   0x49, 0x00, 0x48, 0x00, 0x24, 0x00, 0x20, 0x00, 0x10, 0x00, 0x00, 0x00 };
