#define volume_mute_width 11
#define volume_mute_height 18
static unsigned char volume_mute_bits[] = {
   0x00, 0x00, 0x00, 0x00, 0x00, 0x00, 0x00, 0x00, 0x00, 0x00, 0x06, 0x03,
   0x8c, 0x01, 0xd8, 0x00, 0x70, 0x00, 0x70, 0x00, 0xd8, 0x00, 0x8c, 0x01,
   0x06, 0x03, 0x00, 0x00, 0x00, 0x00, 0x00, 0x00, 0x00, 0x00, 0x00, 0x00 };
