#define volume_4_width 11
#define volume_4_height 18
static unsigned char volume_4_bits[] = {
   0x80, 0x00, 0x90, 0x00, 0x20, 0x01, 0x24, 0x01, 0x48, 0x02, 0x49, 0x02,
   0x92, 0x04, 0x92, 0x04, 0x92, 0x04, 0x92, 0x04, 0x92, 0x04, 0x92, 0x04,
   0x49, 0x02, 0x48, 0x02, 0x24, 0x01, 0x20, 0x01, 0x90, 0x00, 0x80, 0x00 };
