#define wheel_2_width 9
#define wheel_2_height 9
static unsigned char wheel_2_bits[] = {
   0x40, 0x00, 0x40, 0x00, 0x20, 0x00, 0x20, 0x00, 0x10, 0x00, 0x08, 0x00,
   0x08, 0x00, 0x04, 0x00, 0x04, 0x00 };
