#define wheel_6_width 9
#define wheel_6_height 9
static unsigned char wheel_6_bits[] = {
   0x00, 0x00, 0x00, 0x00, 0x03, 0x00, 0x0c, 0x00, 0x10, 0x00, 0x60, 0x00,
   0x80, 0x01, 0x00, 0x00, 0x00, 0x00 };
