#define wheel_1_width 9
#define wheel_1_height 9
static unsigned char wheel_1_bits[] = {
   0x10, 0x00, 0x10, 0x00, 0x10, 0x00, 0x10, 0x00, 0x10, 0x00, 0x10, 0x00,
   0x10, 0x00, 0x10, 0x00, 0x10, 0x00 };
